<svg width="66" height="34" viewBox="0 0 66 34" fill="none" xmlns="http://www.w3.org/2000/svg">
<rect width="66" height="34" rx="3" fill="#B90000"/>
<path d="M35.5805 16.4256C35.6521 16.8042 35.7033 17.1828 35.7033 17.6739C35.7033 21.9611 32.8281 25 28.5 25C24.3561 25 21 21.6439 21 17.5C21 13.3561 24.3561 10 28.5 10C30.5259 10 32.2142 10.7367 33.5239 11.9645L31.4877 13.9188C30.9352 13.3868 29.9632 12.7626 28.5 12.7626C25.942 12.7626 23.8547 14.8806 23.8547 17.5C23.8547 20.1194 25.942 22.2374 28.5 22.2374C31.4672 22.2374 32.5825 20.0989 32.7564 19.0041H28.5V16.4256H35.5805V16.4256ZM42.8229 16.6771V14.5H40.6354V16.6771H38.4583V18.8646H40.6354V21.0417H42.8229V18.8646H45V16.6771H42.8229Z" fill="white"/>
</svg>
