<svg width="67" height="34" viewBox="0 0 67 34" fill="none" xmlns="http://www.w3.org/2000/svg">
<rect width="67" height="34" rx="3" fill="#95D03A"/>
<path d="M37 19C36.2935 19 35.6442 19.2443 35.1316 19.653L31.9289 17.6513C32.0237 17.2223 32.0237 16.7777 31.9289 16.3487L35.1316 14.347C35.6442 14.7557 36.2935 15 37 15C38.6568 15 40 13.6568 40 12C40 10.3432 38.6568 9 37 9C35.3432 9 34 10.3432 34 12C34 12.2237 34.0247 12.4416 34.0711 12.6513L30.8684 14.653C30.3558 14.2443 29.7065 14 29 14C27.3432 14 26 15.3432 26 17C26 18.6568 27.3432 20 29 20C29.7065 20 30.3558 19.7557 30.8684 19.347L34.0711 21.3487C34.0238 21.5626 33.9999 21.781 34 22C34 23.6568 35.3432 25 37 25C38.6568 25 40 23.6568 40 22C40 20.3432 38.6568 19 37 19Z" fill="white"/>
</svg>
