<svg width="67" height="34" viewBox="0 0 67 34" fill="none" xmlns="http://www.w3.org/2000/svg">
<rect width="67" height="34" rx="3" fill="black"/>
<path d="M41.8414 13.2367C41.8548 13.4226 41.8548 13.6086 41.8548 13.7945C41.8548 19.4656 37.5242 26 29.6092 26C27.1707 26 24.9055 25.2961 23 24.0742C23.3465 24.1141 23.6795 24.1273 24.0393 24.1273C26.0514 24.1273 27.9036 23.45 29.3826 22.2946C27.4905 22.2547 25.9048 21.0195 25.3585 19.3195C25.625 19.3593 25.8915 19.3859 26.1713 19.3859C26.5578 19.3859 26.9442 19.3328 27.304 19.2399C25.3319 18.8414 23.8528 17.1148 23.8528 15.0297V14.9766C24.4257 15.2953 25.092 15.4945 25.7982 15.5211C24.6389 14.7507 23.8794 13.4359 23.8794 11.9484C23.8794 11.1515 24.0926 10.4211 24.4657 9.78357C26.5844 12.3867 29.769 14.0867 33.3401 14.2726C33.2735 13.9539 33.2335 13.6219 33.2335 13.2898C33.2335 10.9258 35.1523 9 37.5374 9C38.7766 9 39.8959 9.51797 40.6821 10.3547C41.6548 10.1688 42.5875 9.81015 43.4137 9.31875C43.0939 10.3149 42.4143 11.1516 41.5216 11.6828C42.3877 11.5899 43.2272 11.3508 44 11.0188C43.4138 11.8687 42.6809 12.6257 41.8414 13.2367Z" fill="white"/>
</svg>
