<svg width="67" height="34" viewBox="0 0 67 34" fill="none" xmlns="http://www.w3.org/2000/svg">
<rect width="67" height="34" rx="3" fill="#25D366"/>
<path d="M38.6036 11.325C37.1071 9.825 35.1143 9 32.9964 9C28.625 9 25.0679 12.5571 25.0679 16.9286C25.0679 18.325 25.4321 19.6893 26.125 20.8929L25 25L29.2036 23.8964C30.3607 24.5286 31.6643 24.8607 32.9929 24.8607H32.9964C37.3643 24.8607 41 21.3036 41 16.9321C41 14.8143 40.1 12.825 38.6036 11.325ZM32.9964 23.525C31.8107 23.525 30.65 23.2071 29.6393 22.6071L29.4 22.4643L26.9071 23.1179L27.5714 20.6857L27.4143 20.4357C26.7536 19.3857 26.4071 18.175 26.4071 16.9286C26.4071 13.2964 29.3643 10.3393 33 10.3393C34.7607 10.3393 36.4143 11.025 37.6571 12.2714C38.9 13.5179 39.6643 15.1714 39.6607 16.9321C39.6607 20.5679 36.6286 23.525 32.9964 23.525ZM36.6107 18.5893C36.4143 18.4893 35.4393 18.0107 35.2571 17.9464C35.075 17.8786 34.9429 17.8464 34.8107 18.0464C34.6786 18.2464 34.3 18.6893 34.1821 18.825C34.0679 18.9571 33.95 18.975 33.7536 18.875C32.5893 18.2929 31.825 17.8357 31.0571 16.5179C30.8536 16.1679 31.2607 16.1929 31.6393 15.4357C31.7036 15.3036 31.6714 15.1893 31.6214 15.0893C31.5714 14.9893 31.175 14.0143 31.0107 13.6179C30.85 13.2321 30.6857 13.2857 30.5643 13.2786C30.45 13.2714 30.3179 13.2714 30.1857 13.2714C30.0536 13.2714 29.8393 13.3214 29.6571 13.5179C29.475 13.7179 28.9643 14.1964 28.9643 15.1714C28.9643 16.1464 29.675 17.0893 29.7714 17.2214C29.8714 17.3536 31.1679 19.3536 33.1571 20.2143C34.4143 20.7571 34.9071 20.8036 35.5357 20.7107C35.9179 20.6536 36.7071 20.2321 36.8714 19.7679C37.0357 19.3036 37.0357 18.9071 36.9857 18.825C36.9393 18.7357 36.8071 18.6857 36.6107 18.5893Z" fill="white"/>
</svg>
