<svg width="13" height="12" viewBox="0 0 13 12" fill="none" xmlns="http://www.w3.org/2000/svg">
<path d="M10.5762 0.125H2.79883C1.91042 0.125 1.1875 0.847916 1.1875 1.73633V9.51367C1.1875 10.402 1.91042 11.125 2.79883 11.125H10.5762C11.4645 11.125 12.1875 10.402 12.1875 9.51367V1.73633C12.1875 0.847916 11.4645 0.125 10.5762 0.125ZM6.70898 8.5039C5.10966 8.5039 3.8086 7.20284 3.8086 5.60352C3.8086 4.00419 5.10966 2.70313 6.70898 2.70313C8.30831 2.70313 9.60937 4.00419 9.60937 5.60352C9.60937 7.20284 8.30831 8.5039 6.70898 8.5039ZM9.93165 3.34765C9.39856 3.34765 8.96485 2.91394 8.96485 2.38086C8.96485 1.84778 9.39856 1.41406 9.93165 1.41406C10.4647 1.41406 10.8985 1.84778 10.8985 2.38086C10.8985 2.91394 10.4647 3.34765 9.93165 3.34765Z" fill="white"/>
<path d="M9.93166 2.05859C9.7538 2.05859 9.60938 2.20302 9.60938 2.38086C9.60938 2.55869 9.7538 2.70313 9.93166 2.70313C10.1095 2.70313 10.2539 2.55869 10.2539 2.38086C10.2539 2.20302 10.1095 2.05859 9.93166 2.05859Z" fill="white"/>
<path d="M6.70898 3.34766C5.46524 3.34766 4.45312 4.35977 4.45312 5.60352C4.45312 6.84726 5.46524 7.85937 6.70898 7.85937C7.95272 7.85937 8.96484 6.84726 8.96484 5.60352C8.96484 4.35977 7.95272 3.34766 6.70898 3.34766Z" fill="white"/>
</svg>
