<svg width="14" height="10" viewBox="0 0 14 10" fill="none" xmlns="http://www.w3.org/2000/svg">
<path d="M12.4402 2.43969C12.3019 1.92563 11.8966 1.52041 11.3826 1.38199C10.4436 1.125 6.68738 1.125 6.68738 1.125C6.68738 1.125 2.93127 1.125 1.99221 1.37219C1.48812 1.51053 1.07294 1.92572 0.934599 2.43969C0.6875 3.37865 0.6875 5.32597 0.6875 5.32597C0.6875 5.32597 0.6875 7.28308 0.934599 8.21224C1.07303 8.72625 1.47824 9.13155 1.9923 9.26993C2.94115 9.52695 6.68748 9.52695 6.68748 9.52695C6.68748 9.52695 10.4436 9.52695 11.3826 9.27975C11.8967 9.14138 12.3019 8.73607 12.4404 8.22213C12.6874 7.28308 12.6874 5.33585 12.6874 5.33585C12.6874 5.33585 12.6973 3.37865 12.4402 2.43969Z" fill="#D3003E" stroke="white" stroke-width="0.75"/>
</svg>
