<svg width="16" height="18" viewBox="0 0 16 18" fill="none" xmlns="http://www.w3.org/2000/svg">
<path d="M11.9816 5.32988V5.82988H12.4816H15.1795V14.3907C15.1795 15.5863 14.2102 16.5556 13.0146 16.5556H3.4208C2.22513 16.5556 1.25586 15.5863 1.25586 14.3907V5.82988H3.95379H4.45379V5.32988V4.2639C4.45379 2.1889 6.14269 0.5 8.21769 0.5C10.2927 0.5 11.9816 2.1889 11.9816 4.2639V5.32988ZM10.3496 5.82988H10.8496V5.32988V4.2639C10.8496 2.81219 9.6694 1.63195 8.21769 1.63195C6.76597 1.63195 5.58574 2.81219 5.58574 4.2639V5.32988V5.82988H6.08574H10.3496ZM10.1161 7.46183C10.1161 8.17952 10.6979 8.76131 11.4156 8.76131C12.1333 8.76131 12.7151 8.17952 12.7151 7.46183C12.7151 6.74414 12.1333 6.16235 11.4156 6.16235C10.6979 6.16235 10.1161 6.74414 10.1161 7.46183ZM3.72028 7.46183C3.72028 8.17952 4.30207 8.76131 5.01976 8.76131C5.73745 8.76131 6.31924 8.17952 6.31924 7.46183C6.31924 6.74414 5.73745 6.16235 5.01976 6.16235C4.30207 6.16235 3.72028 6.74414 3.72028 7.46183Z" stroke="#33363E"/>
</svg>
