<svg width="18" height="15" viewBox="0 0 18 15" fill="none" xmlns="http://www.w3.org/2000/svg">
<path d="M10.4205 1.86834L10.4202 1.86857L9.76398 2.5448L9.40517 2.91454L9.04635 2.5448L8.39011 1.86857L8.38953 1.86798C6.87901 0.306301 4.45898 0.083046 2.85741 1.44775C0.988223 3.04325 0.888016 5.91381 2.56234 7.64498L10.4205 1.86834ZM10.4205 1.86834C11.9346 0.306059 14.3514 0.0832271 15.9528 1.44763C17.8221 3.04313 17.9223 5.91371 16.2448 7.64488L16.2447 7.64498L9.79893 14.3006C9.7989 14.3006 9.79887 14.3006 9.79884 14.3007C9.5789 14.5275 9.22797 14.5275 9.00807 14.3006L2.56255 7.6452L10.4205 1.86834Z" stroke="#33363E"/>
</svg>
