<svg width="163" height="40" viewBox="0 0 163 40" fill="none" xmlns="http://www.w3.org/2000/svg">
<path d="M17.98 4.244H25.768V28.444H39.144V35H17.98V4.244ZM58.2721 35.66C55.1628 35.66 52.3468 34.9853 49.8241 33.636C47.3308 32.2867 45.3508 30.4093 43.8841 28.004C42.4468 25.5693 41.7281 22.7827 41.7281 19.644C41.7281 16.5053 42.4468 13.7187 43.8841 11.284C45.3508 8.84933 47.3308 6.95733 49.8241 5.608C52.3468 4.25866 55.1628 3.584 58.2721 3.584C61.3521 3.584 64.1388 4.25866 66.6321 5.608C69.1548 6.95733 71.1348 8.84933 72.5721 11.284C74.0095 13.7187 74.7281 16.5053 74.7281 19.644C74.7281 22.7827 74.0095 25.5693 72.5721 28.004C71.1348 30.4093 69.1548 32.2867 66.6321 33.636C64.1388 34.9853 61.3521 35.66 58.2721 35.66ZM58.2721 28.356C59.8268 28.356 61.2495 28.004 62.5401 27.3C63.8308 26.596 64.8575 25.584 65.6201 24.264C66.3828 22.944 66.7641 21.404 66.7641 19.644C66.7641 17.884 66.3828 16.3587 65.6201 15.068C64.8868 13.748 63.8748 12.736 62.5841 12.032C61.2935 11.2987 59.8561 10.932 58.2721 10.932C56.6588 10.932 55.2068 11.2987 53.9161 12.032C52.6255 12.736 51.5988 13.748 50.8361 15.068C50.1028 16.3587 49.7361 17.884 49.7361 19.644C49.7361 21.404 50.1028 22.944 50.8361 24.264C51.5988 25.584 52.6255 26.596 53.9161 27.3C55.2361 28.004 56.6881 28.356 58.2721 28.356Z" fill="#33363E"/>
<path d="M95.839 35.66C92.495 35.66 89.547 35.0147 86.995 33.724C84.4723 32.4333 82.5217 30.5853 81.143 28.18C79.7643 25.7453 79.075 22.9 79.075 19.644C79.075 16.388 79.7643 13.5573 81.143 11.152C82.5217 8.71733 84.4723 6.85467 86.995 5.564C89.547 4.244 92.495 3.584 95.839 3.584C98.0683 3.584 100.034 3.804 101.735 4.244C103.466 4.65466 105.064 5.32933 106.531 6.268V13.66C105.24 12.6333 103.774 11.9 102.131 11.46C100.518 10.9907 98.655 10.756 96.543 10.756C94.7243 10.756 93.0963 11.1227 91.659 11.856C90.251 12.56 89.1363 13.5867 88.315 14.936C87.4937 16.2853 87.083 17.8547 87.083 19.644C87.083 22.4307 87.8897 24.6307 89.503 26.244C91.1457 27.8573 93.3603 28.664 96.147 28.664C97.7017 28.664 99.007 28.4 100.063 27.872V22.944H95.355V17.488H107.455V32.8C104.316 34.7067 100.444 35.66 95.839 35.66ZM129.013 35.66C125.903 35.66 123.087 34.9853 120.565 33.636C118.071 32.2867 116.091 30.4093 114.625 28.004C113.187 25.5693 112.469 22.7827 112.469 19.644C112.469 16.5053 113.187 13.7187 114.625 11.284C116.091 8.84933 118.071 6.95733 120.565 5.608C123.087 4.25866 125.903 3.584 129.013 3.584C132.093 3.584 134.879 4.25866 137.373 5.608C139.895 6.95733 141.875 8.84933 143.313 11.284C144.75 13.7187 145.469 16.5053 145.469 19.644C145.469 22.7827 144.75 25.5693 143.313 28.004C141.875 30.4093 139.895 32.2867 137.373 33.636C134.879 34.9853 132.093 35.66 129.013 35.66ZM129.013 28.356C130.567 28.356 131.99 28.004 133.281 27.3C134.571 26.596 135.598 25.584 136.361 24.264C137.123 22.944 137.505 21.404 137.505 19.644C137.505 17.884 137.123 16.3587 136.361 15.068C135.627 13.748 134.615 12.736 133.325 12.032C132.034 11.2987 130.597 10.932 129.013 10.932C127.399 10.932 125.947 11.2987 124.657 12.032C123.366 12.736 122.339 13.748 121.577 15.068C120.843 16.3587 120.477 17.884 120.477 19.644C120.477 21.404 120.843 22.944 121.577 24.264C122.339 25.584 123.366 26.596 124.657 27.3C125.977 28.004 127.429 28.356 129.013 28.356Z" fill="#25D366"/>
<circle cx="157.5" cy="20.5" r="5.5" fill="#33363E"/>
<circle cx="5.5" cy="20.5" r="5.5" fill="#33363E"/>
</svg>
