<svg width="18" height="18" viewBox="0 0 18 18" fill="none" xmlns="http://www.w3.org/2000/svg">
<path d="M12.8247 4.79689C12.8247 7.16903 10.8999 9.09378 8.5278 9.09378C6.15566 9.09378 4.23091 7.16903 4.23091 4.79689C4.23091 2.42475 6.15566 0.5 8.5278 0.5C10.8999 0.5 12.8247 2.42475 12.8247 4.79689ZM8.5278 11.6927C9.42937 11.6927 10.2875 11.5 11.0633 11.1598H12.7917C14.8707 11.1598 16.5556 12.8447 16.5556 14.9237V15.4566C16.5556 16.0633 16.0633 16.5556 15.4566 16.5556H1.59896C0.992345 16.5556 0.5 16.0633 0.5 15.4566V14.9237C0.5 12.8447 2.1849 11.1598 4.2639 11.1598H5.99272C6.77056 11.4997 7.62558 11.6927 8.5278 11.6927Z" stroke="#33363E"/>
</svg>
